# xmcd
#
# Track frame offsets:
#	150
#	18675
#	36861
#	53329
#	71411
#	85324
#	100444
#	118724
#	134084
#	148242
#	163946
#	183184
#	200023
#	217335
#
# Disc length: 3079 seconds
#
# Revision: 0
# Processed by: cddbd v1.5PL3 Copyright (c) Steve Scherf et al.
# Submitted via: MusicManager 7.0.4.0 
#
DISCID=dc0c050e
DTITLE=DANE STEVENS - LOVE IS MY LIFE
DYEAR=2000
DGENRE=country
TTITLE0=LOVE IS MY LIFE
TTITLE1=ISLAND
TTITLE2=ONE WAY TICKET
TTITLE3=WHY DO YOU ALWAYS
TTITLE4=I'M COUNTRY DOWN TO MY SOUL
TTITLE5=DID YOU KNOW
TTITLE6=WATERFRONT CRAWL
TTITLE7=I'M GONNA MISS YOU GIRL
TTITLE8=I COULD FALL INTO YOUR EYES
TTITLE9=CATTLE CALL
TTITLE10=ICE ON THE MOVE
TTITLE11=COUNTRY LINE SPECIAL
TTITLE12=CALIFORNIA BLUE
TTITLE13=COWBOY MOVIES
EXTD=
EXTT0=
EXTT1=
EXTT2=
EXTT3=
EXTT4=
EXTT5=
EXTT6=
EXTT7=
EXTT8=
EXTT9=
EXTT10=
EXTT11=
EXTT12=
EXTT13=
PLAYORDER=
